/* XPM */
static const char *record_xpm[] = {
/* columns rows colors chars-per-pixel */
"16 16 8 1",
"  c red",
". c #FF0808",
"X c #FF0909",
"o c #FF2E2E",
"O c #FF7777",
"+ c #FF9B9B",
"@ c #FFE4E4",
"# c None",
/* pixels */
"################",
"####@Oo .oO@####",
"###+.      .+###",
"##+          +##",
"#@.          .@#",
"#O            O#",
"#o            o#",
"#.            .#",
"#.            .#",
"#o            o#",
"#O            O#",
"#@.          .@#",
"##+          +##",
"###+.      .+###",
"####@Oo .oO@####",
"################"
};
